<svg xmlns="http://www.w3.org/2000/svg" viewBox="0 0 375 200">
    <path d="M355.45,4.3l3.75,3.2a6,6,0,0,0,8-.19L375,0V200l-7.81-7.31a6,6,0,0,0-8-.19l-3.75,3.2a6,6,0,0,1-7.78,0l-3.94-3.36a6,6,0,0,0-7.77,0L332,195.7a6,6,0,0,1-7.77,0l-3.95-3.36a6,6,0,0,0-7.77,0l-3.94,3.36a6,6,0,0,1-7.78,0l-3.94-3.36a6,6,0,0,0-7.78,0l-3.94,3.36a6,6,0,0,1-7.78,0l-3.94-3.36a6,6,0,0,0-7.78,0l-3.94,3.36a6,6,0,0,1-7.77,0l-4-3.36a6,6,0,0,0-7.77,0l-4,3.36a6,6,0,0,1-7.77,0l-4-3.36a6,6,0,0,0-7.77,0l-4,3.36a6,6,0,0,1-7.77,0l-3.94-3.36a6,6,0,0,0-7.78,0l-3.94,3.36a6,6,0,0,1-7.78,0l-3.94-3.36a6,6,0,0,0-7.78,0L168,195.7a6,6,0,0,1-7.77,0l-4-3.36a6,6,0,0,0-7.77,0l-4,3.36a6,6,0,0,1-7.77,0l-4-3.36a6,6,0,0,0-7.77,0l-4,3.36a6,6,0,0,1-7.77,0l-3.94-3.36a6,6,0,0,0-7.78,0l-3.94,3.36a6,6,0,0,1-7.78,0l-3.94-3.36a6,6,0,0,0-7.78,0L74.2,195.7a6,6,0,0,1-7.78,0l-3.94-3.36a6,6,0,0,0-7.77,0l-4,3.36a6,6,0,0,1-7.77,0l-4-3.36a6,6,0,0,0-7.77,0l-3.94,3.36a6,6,0,0,1-7.78,0l-3.75-3.2a6,6,0,0,0-8,.19L0,200V0L7.81,7.31a6,6,0,0,0,8,.19l3.75-3.2a6.75,6.75,0,0,1,.89-.62,6,6,0,0,1,6.89.62l3.94,3.36a5.63,5.63,0,0,0,.88.62A6,6,0,0,0,39,7.66L43,4.3a6.65,6.65,0,0,1,.88-.62,6,6,0,0,1,6.89.62l4,3.36a5.2,5.2,0,0,0,.88.62,6,6,0,0,0,6.89-.62L66.42,4.3a6,6,0,0,1,7.78,0l3.94,3.36a6,6,0,0,0,7.78,0L89.86,4.3a6,6,0,0,1,7.78,0l3.94,3.36a6,6,0,0,0,7.78,0L113.3,4.3a6,6,0,0,1,7.77,0l4,3.36a5.63,5.63,0,0,0,.88.62,6,6,0,0,0,6.89-.62l4-3.36a6.65,6.65,0,0,1,.88-.62,6,6,0,0,1,6.89.62l4,3.36a5.2,5.2,0,0,0,.88.62,6,6,0,0,0,6.89-.62l4-3.36a6.65,6.65,0,0,1,.88-.62A6,6,0,0,1,168,4.3l3.94,3.36a5.27,5.27,0,0,0,.89.62,6,6,0,0,0,6.89-.62l3.94-3.36a6.75,6.75,0,0,1,.89-.62,6,6,0,0,1,6.89.62l3.94,3.36a5.27,5.27,0,0,0,.89.62,6,6,0,0,0,6.89-.62l3.94-3.36a7.38,7.38,0,0,1,.88-.62,6,6,0,0,1,6.89.62l4,3.36a5.63,5.63,0,0,0,.88.62,6,6,0,0,0,6.89-.62l4-3.36a6.65,6.65,0,0,1,.88-.62,6,6,0,0,1,6.89.62l4,3.36a5.2,5.2,0,0,0,.88.62A6,6,0,0,0,250,7.66l4-3.36a6.65,6.65,0,0,1,.88-.62,6,6,0,0,1,6.89.62l3.94,3.36a5.27,5.27,0,0,0,.89.62,6,6,0,0,0,6.89-.62l3.94-3.36a6.75,6.75,0,0,1,.89-.62,6,6,0,0,1,6.89.62l3.94,3.36a5.27,5.27,0,0,0,.89.62,6,6,0,0,0,6.89-.62L300.8,4.3a7.38,7.38,0,0,1,.88-.62,6,6,0,0,1,6.9.62l3.94,3.36a5.63,5.63,0,0,0,.88.62,6,6,0,0,0,6.89-.62l3.95-3.36a6.65,6.65,0,0,1,.88-.62A6,6,0,0,1,332,4.3L336,7.66a5.2,5.2,0,0,0,.88.62,6,6,0,0,0,6.89-.62l3.94-3.36a6.75,6.75,0,0,1,.89-.62A6,6,0,0,1,355.45,4.3Z" fill="currentColor" />
</svg>