<svg width="343" height="256" viewBox="0 0 343 256" fill="none" xmlns="http://www.w3.org/2000/svg">
<mask id="mask0_490_16978" style="mask-type:alpha" maskUnits="userSpaceOnUse" x="0" y="0" width="343" height="256">
<rect width="343" height="256" rx="13" transform="matrix(1 0 0 -1 0 256)" fill="#C4C4C4"/>
</mask>
<g mask="url(#mask0_490_16978)">
<path d="M10.8105 269.175C15.9641 271.86 22.3129 269.602 24.6134 264.265L77.9745 140.491C79.1882 137.675 79.0434 134.459 77.5816 131.764L-54.3537 -111.466C-58.1738 -118.509 -68.3111 -118.424 -72.0126 -111.318L-205.616 145.159C-208.168 150.058 -206.265 156.097 -201.367 158.648L10.8105 269.175Z" stroke="white" stroke-opacity="0.04" stroke-width="2"/>
<path d="M469 75.7602C469 69.9493 464.064 65.362 458.269 65.787L323.843 75.6449C320.785 75.8691 317.999 77.4836 316.284 80.0251L161.521 309.407C157.039 316.049 161.798 325 169.81 325H459C464.523 325 469 320.523 469 315V75.7602Z" stroke="white" stroke-opacity="0.04" stroke-width="2"/>
</g>
</svg>
