<svg xmlns="http://www.w3.org/2000/svg" width="18.631" height="18.522" viewBox="0 0 18.631 18.522">
  <g transform="translate(-3 -2.478)">
    <path d="M7,17.013,11.413,17l9.632-9.54a2,2,0,0,0,0-2.828L19.459,3.044a2.05,2.05,0,0,0-2.825,0L7,12.583ZM18.045,4.458l1.589,1.583-1.6,1.582L16.451,6.038ZM9,13.417l6.03-5.973L16.616,9.03,10.587,15,9,15.006Z" fill="currentcolor" />
    <path d="M5,21H19a2,2,0,0,0,2-2V10.332l-2,2V19H8.158c-.026,0-.053.01-.079.01S8.013,19,7.979,19H5V5h6.847l2-2H5A2,2,0,0,0,3,5V19A2,2,0,0,0,5,21Z" fill="currentcolor" />
  </g>
</svg>
