<svg xmlns="http://www.w3.org/2000/svg" viewBox="0 0 20 18">
    <path d="M20,12.94A5,5,0,0,1,15,18H5.05a5,5,0,0,1-5-5H0S0,8.52,0,6.3a.5.5,0,0,1,.81-.39C3.2,7.79,7.45,11.23,7.5,11.27a4.06,4.06,0,0,0,2.53.89,4,4,0,0,0,2.53-.9S16.77,7.89,19.18,6a.5.5,0,0,1,.81.39c0,2.21,0,6.57,0,6.57" fill="currentcolor" opacity="0.5" />
    <path d="M19.48,2.67A5,5,0,0,0,15,0h-10A5,5,0,0,0,.6,2.67.86.86,0,0,0,.83,3.75L8.25,9.69a2.83,2.83,0,0,0,1.78.63h0a2.83,2.83,0,0,0,1.78-.63l7.43-5.94a.87.87,0,0,0,.22-1.08" fill="currentcolor" />
</svg>