<svg width="14" height="14" viewBox="0 0 14 14" fill="none" xmlns="http://www.w3.org/2000/svg">
<g clip-path="url(#clip0_5430_74893)">
<path d="M7 9.33333C6.53851 9.33333 6.08738 9.19649 5.70367 8.9401C5.31995 8.68371 5.02088 8.31929 4.84428 7.89293C4.66768 7.46657 4.62147 6.99741 4.7115 6.54479C4.80153 6.09217 5.02376 5.67641 5.35008 5.35009C5.67641 5.02376 6.09217 4.80153 6.54479 4.7115C6.99741 4.62147 7.46657 4.66768 7.89293 4.84428C8.31929 5.02089 8.68371 5.31996 8.94009 5.70367C9.19649 6.08739 9.33333 6.53851 9.33333 7C9.33333 7.61884 9.0875 8.21233 8.64992 8.64992C8.21233 9.0875 7.61884 9.33333 7 9.33333ZM3.31508 9.33333H0.583333C0.428624 9.33333 0.280251 9.27188 0.170854 9.16248C0.0614582 9.05308 0 8.90471 0 8.75C0.00552757 7.9124 0.310173 7.10433 0.858991 6.47155C1.40781 5.83877 2.16467 5.42292 2.99308 5.299C3.08935 5.28551 3.18745 5.2963 3.27849 5.33037C3.36952 5.36444 3.4506 5.42072 3.51436 5.49409C3.57811 5.56747 3.62252 5.65561 3.64354 5.75051C3.66457 5.84541 3.66155 5.94407 3.63475 6.0375C3.54536 6.35052 3.5 6.67447 3.5 7C3.50017 7.51903 3.61699 8.03137 3.84183 8.49917C3.88412 8.58796 3.90328 8.686 3.89752 8.78418C3.89175 8.88236 3.86126 8.97749 3.80888 9.06072C3.75649 9.14396 3.68391 9.21259 3.59789 9.26026C3.51186 9.30792 3.41518 9.33306 3.31683 9.33333H3.31508ZM9.91667 14H4.08333C3.92862 14 3.78025 13.9385 3.67085 13.8291C3.56146 13.7198 3.5 13.5714 3.5 13.4167C3.5 12.4884 3.86875 11.5982 4.52513 10.9418C5.1815 10.2854 6.07174 9.91667 7 9.91667C7.92826 9.91667 8.8185 10.2854 9.47487 10.9418C10.1313 11.5982 10.5 12.4884 10.5 13.4167C10.5 13.5714 10.4385 13.7198 10.3291 13.8291C10.2197 13.9385 10.0714 14 9.91667 14ZM10.5 4.66667C10.0385 4.66667 9.58738 4.52982 9.20367 4.27343C8.81995 4.01704 8.52089 3.65262 8.34428 3.22626C8.16768 2.7999 8.12147 2.33075 8.2115 1.87812C8.30153 1.4255 8.52376 1.00974 8.85008 0.683419C9.17641 0.357096 9.59217 0.134868 10.0448 0.0448354C10.4974 -0.0451968 10.9666 0.00101099 11.3929 0.177615C11.8193 0.35422 12.1837 0.653289 12.4401 1.037C12.6965 1.42072 12.8333 1.87184 12.8333 2.33333C12.8333 2.95217 12.5875 3.54567 12.1499 3.98325C11.7123 4.42084 11.1188 4.66667 10.5 4.66667ZM3.5 4.66667C3.03851 4.66667 2.58738 4.52982 2.20367 4.27343C1.81995 4.01704 1.52089 3.65262 1.34428 3.22626C1.16768 2.7999 1.12147 2.33075 1.2115 1.87812C1.30153 1.4255 1.52376 1.00974 1.85008 0.683419C2.17641 0.357096 2.59217 0.134868 3.04479 0.0448354C3.49741 -0.0451968 3.96657 0.00101099 4.39293 0.177615C4.81929 0.35422 5.18371 0.653289 5.4401 1.037C5.69649 1.42072 5.83333 1.87184 5.83333 2.33333C5.83333 2.95217 5.5875 3.54567 5.14992 3.98325C4.71233 4.42084 4.11884 4.66667 3.5 4.66667ZM13.4167 9.33333H10.6849C10.5866 9.33306 10.4899 9.30792 10.4039 9.26026C10.3178 9.21259 10.2453 9.14396 10.1929 9.06072C10.1405 8.97749 10.11 8.88236 10.1042 8.78418C10.0985 8.686 10.1176 8.58796 10.1599 8.49917C10.3842 8.03123 10.5004 7.51889 10.5 7C10.499 6.67433 10.4527 6.35038 10.3623 6.0375C10.3354 5.9438 10.3323 5.84484 10.3535 5.74966C10.3747 5.65448 10.4193 5.56613 10.4835 5.49267C10.5476 5.41922 10.6291 5.363 10.7205 5.32917C10.812 5.29534 10.9104 5.28497 11.0069 5.299C11.8353 5.42292 12.5922 5.83877 13.141 6.47155C13.6898 7.10433 13.9945 7.9124 14 8.75C14 8.90471 13.9385 9.05308 13.8291 9.16248C13.7197 9.27188 13.5714 9.33333 13.4167 9.33333Z" fill="#4A4857"/>
</g>
<defs>
<clipPath id="clip0_5430_74893">
<rect width="14" height="14" fill="white"/>
</clipPath>
</defs>
</svg>
