<svg xmlns="http://www.w3.org/2000/svg" viewBox="0 0 16 16">
    <path d="M0,11.72V1.42A1.43,1.43,0,0,1,1.42,0H6.24A1.42,1.42,0,0,1,7.65,1.25L9.06,12.58a.5.5,0,0,1-.5.56H1.42A1.42,1.42,0,0,1,0,11.72ZM14.58,2.81H8.8L10,12.43a1.61,1.61,0,0,1-.39,1.25L7.58,16h7A1.43,1.43,0,0,0,16,14.58V4.23A1.43,1.43,0,0,0,14.58,2.81ZM7.92,14.15H5.53v.34a1.65,1.65,0,0,0,.83,1.38ZM3.77,3.4a.45.45,0,0,0-.45.37l-1,4.62a.46.46,0,0,0,.36.54.47.47,0,0,0,.55-.36l.31-1.52H4.9l.3,1.52a.46.46,0,1,0,.9-.18L5.18,3.77a.45.45,0,0,0-.45-.37Zm.94,2.73H3.77l.37-1.81h.21Zm8.44.54a.47.47,0,0,0-.46-.46.46.46,0,0,0-.46.46v.42H10.85a.47.47,0,0,0,0,.93h.05a8.22,8.22,0,0,0,.86,1.58l.32.45A7.14,7.14,0,0,1,11,11a.46.46,0,0,0,.53.75,8.17,8.17,0,0,0,1.12-1,7.36,7.36,0,0,0,1.17,1,.46.46,0,0,0,.51-.77,6.22,6.22,0,0,1-1.07-.9,8.84,8.84,0,0,0,1.19-2h.13a.47.47,0,0,0,0-.93H13.15Zm-.63,2.4A7.87,7.87,0,0,1,11.9,8h1.58a7,7,0,0,1-.79,1.3A2.2,2.2,0,0,1,12.52,9.07Z" fill="currentcolor" fillrule="evenodd" />
</svg>