<svg xmlns="http://www.w3.org/2000/svg" viewBox="0 0 12.59 14">
    <path d="M3.36,0H9.23a3.06,3.06,0,0,1,3.36,3.38v7.23A3.05,3.05,0,0,1,9.23,14H3.36A3.07,3.07,0,0,1,0,10.61V3.38A3.08,3.08,0,0,1,3.36,0Zm.19,3.26H5.64a.55.55,0,0,1,.55.55.55.55,0,0,1-.55.55H3.55A.55.55,0,0,1,3,3.81.55.55,0,0,1,3.55,3.26Zm0,4.26H9A.55.55,0,0,0,9.58,7,.55.55,0,0,0,9,6.43H3.55A.55.55,0,0,0,3,7,.55.55,0,0,0,3.55,7.52Zm0,3.19H9a.55.55,0,0,0,.49-.54A.56.56,0,0,0,9,9.61H3.55A.55.55,0,0,0,3,9.87a.57.57,0,0,0,0,.59A.52.52,0,0,0,3.55,10.71Z" fill-rule="evenodd" fill="currentcolor" />
</svg>