<svg width="14" height="14" viewBox="0 0 14 14" fill="none" xmlns="http://www.w3.org/2000/svg">
<path fill-rule="evenodd" clip-rule="evenodd" d="M4.06811 0.000976562H9.93044C12.0911 0.000976562 13.2942 1.24698 13.2942 3.38198V10.613C13.2942 12.783 12.0911 14.001 9.93044 14.001H4.06811C1.94169 14.001 0.703613 12.783 0.703613 10.613V3.38198C0.703613 1.24698 1.94169 0.000976562 4.06811 0.000976562ZM4.25311 3.26282V3.25582H6.34386C6.64533 3.25582 6.89015 3.50064 6.89015 3.80072C6.89015 4.10919 6.64533 4.354 6.34386 4.354H4.25311C3.95164 4.354 3.70752 4.10919 3.70752 3.80841C3.70752 3.50764 3.95164 3.26282 4.25311 3.26282ZM4.25311 7.51804H9.73703C10.0378 7.51804 10.2826 7.27322 10.2826 6.97244C10.2826 6.67167 10.0378 6.42615 9.73703 6.42615H4.25311C3.95164 6.42615 3.70752 6.67167 3.70752 6.97244C3.70752 7.27322 3.95164 7.51804 4.25311 7.51804ZM4.25552 10.7131H9.73944C10.0185 10.6851 10.2291 10.4466 10.2291 10.1675C10.2291 9.88072 10.0185 9.6429 9.73944 9.61492H4.25552C4.04568 9.59393 3.84283 9.69186 3.73091 9.87372C3.61899 10.0486 3.61899 10.2794 3.73091 10.4613C3.84283 10.6362 4.04568 10.7411 4.25552 10.7131Z" fill="#7B7D8D"/>
</svg>
