<svg xmlns="http://www.w3.org/2000/svg" viewBox="0 0 9.81 18.54">
    <path d="M9.81,12.23a4.07,4.07,0,0,1-1,2.76,4.6,4.6,0,0,1-2.6,1.48v.85a1.22,1.22,0,0,1-2.44,0v-.78a5.5,5.5,0,0,1-3.55-2A1.13,1.13,0,0,1,.39,13a1.75,1.75,0,0,1,2.25.11l.34.24a3.38,3.38,0,0,0,1.81.54,2.09,2.09,0,0,0,1.35-.4,1.36,1.36,0,0,0,.51-1.07c0-.59-.41-1.09-1.24-1.52-.12-.06-.4-.2-.86-.4A20.82,20.82,0,0,1,2.4,9.34a4,4,0,0,1-2-3.46,3.82,3.82,0,0,1,.93-2.6,4.43,4.43,0,0,1,2.52-1.4V1.23a1.24,1.24,0,0,1,2.47,0v.65A5.69,5.69,0,0,1,8.67,3a1.17,1.17,0,0,1,.15,1.66,1.61,1.61,0,0,1-2.06.29,3.39,3.39,0,0,0-1.7-.47,1.85,1.85,0,0,0-1.23.39,1.23,1.23,0,0,0,0,1.9c.17.13.5.34,1,.64.21.12.66.34,1.34.68a16.9,16.9,0,0,1,1.69.89A3.74,3.74,0,0,1,9.81,12.23Z" fill="currentcolor" />
</svg>