<svg xmlns="http://www.w3.org/2000/svg" viewBox="0 0 20 20">
    <path d="M12.42,3.49a.86.86,0,0,0-1,.68.87.87,0,0,0,.68,1,3.47,3.47,0,0,1,2.75,2.75h0a.86.86,0,0,0,.84.7l.16,0a.87.87,0,0,0,.68-1,5.19,5.19,0,0,0-4.1-4.11" fill="currentcolor" opacity="0.5" />
    <path d="M12.36,0a.83.83,0,0,0-.63.17.87.87,0,0,0,.44,1.54,6.9,6.9,0,0,1,6.12,6.14.86.86,0,0,0,.85.76h.1a.8.8,0,0,0,.57-.31A.82.82,0,0,0,20,7.66,8.61,8.61,0,0,0,12.36,0" fill="currentcolor" opacity="0.5" />
    <path d="M9,11c4,4,4.9-.63,7.44,1.91s3.85,2.94.75,6c-.39.31-2.86,4.07-11.54-4.6S.76,3.17,1.07,2.78c3.11-3.11,3.6-1.69,6,.75S5,7,9,11Z" fill="currentcolor" />
</svg>