<svg xmlns="http://www.w3.org/2000/svg" viewBox="0 0 51 51">
    <circle className="base-1" cx="25.5" cy="25.5" r="25.5" fill="currentColor" />
    <circle className="base-2" cx="25.5" cy="25.5" r="25.5" fill="currentColor" />
    <path className="mark" d="M19.66,17.89a1.39,1.39,0,0,0-1.94-.17,1.39,1.39,0,0,0,.17,1.94l5.84,5.84-5.84,5.84a1.39,1.39,0,0,0-.17,1.94,1.39,1.39,0,0,0,1.94-.17l5.84-5.84,5.84,5.84a1.27,1.27,0,1,0,1.77-1.77L27.27,25.5l5.84-5.84a1.39,1.39,0,0,0,.17-1.94,1.39,1.39,0,0,0-1.94.17L25.5,23.73Z" fill="#FFF" />
</svg>