<svg width="17" height="16" viewBox="0 0 17 16" fill="none" xmlns="http://www.w3.org/2000/svg">
<path d="M8.50208 2.18164C6.92201 2.18164 6.72371 2.18855 6.10313 2.21679C5.48375 2.24516 5.06098 2.34322 4.69105 2.4871C4.30839 2.6357 3.9838 2.83449 3.66041 3.158C3.33679 3.4814 3.138 3.806 2.98892 4.18855C2.84468 4.55861 2.7465 4.98152 2.71862 5.60067C2.69087 6.22128 2.68359 6.4197 2.68359 7.99982C2.68359 9.57994 2.69062 9.77764 2.71874 10.3982C2.74723 11.0176 2.84529 11.4404 2.98904 11.8104C3.13776 12.193 3.33654 12.5176 3.66005 12.841C3.98331 13.1647 4.30791 13.3639 4.69032 13.5125C5.06049 13.6564 5.48339 13.7545 6.10264 13.7829C6.72323 13.8111 6.9214 13.818 8.50136 13.818C10.0816 13.818 10.2792 13.8111 10.8998 13.7829C11.5192 13.7545 11.9425 13.6564 12.3126 13.5125C12.6952 13.3639 13.0193 13.1647 13.3425 12.841C13.6662 12.5176 13.865 12.193 14.014 11.8105C14.1571 11.4404 14.2552 11.0175 14.2843 10.3984C14.3122 9.77776 14.3195 9.57994 14.3195 7.99982C14.3195 6.4197 14.3122 6.2214 14.2843 5.60079C14.2552 4.9814 14.1571 4.55861 14.014 4.18867C13.865 3.806 13.6662 3.4814 13.3425 3.158C13.0189 2.83437 12.6953 2.63558 12.3123 2.4871C11.9414 2.34322 11.5184 2.24516 10.899 2.21679C10.2784 2.18855 10.0808 2.18164 8.50027 2.18164H8.50208ZM7.98016 3.23013C8.13507 3.22988 8.30791 3.23013 8.50208 3.23013C10.0555 3.23013 10.2396 3.2357 10.853 3.26358C11.4203 3.28952 11.7282 3.38431 11.9333 3.46394C12.2048 3.5694 12.3983 3.69546 12.6018 3.89909C12.8055 4.10273 12.9315 4.29667 13.0372 4.56819C13.1169 4.77303 13.2118 5.08091 13.2376 5.64819C13.2655 6.26152 13.2715 6.44576 13.2715 7.99849C13.2715 9.55122 13.2655 9.73546 13.2376 10.3488C13.2116 10.9161 13.1169 11.2239 13.0372 11.4288C12.9318 11.7003 12.8055 11.8936 12.6018 12.0972C12.3982 12.3008 12.2049 12.4269 11.9333 12.5323C11.7284 12.6123 11.4203 12.7069 10.853 12.7328C10.2397 12.7607 10.0555 12.7667 8.50208 12.7667C6.94856 12.7667 6.76444 12.7607 6.15113 12.7328C5.58387 12.7066 5.276 12.6118 5.07079 12.5322C4.79929 12.4267 4.60535 12.3007 4.40172 12.097C4.19809 11.8934 4.07204 11.6999 3.96634 11.4283C3.88671 11.2235 3.7918 10.9156 3.76599 10.3483C3.73811 9.73497 3.73253 9.55073 3.73253 7.99703C3.73253 6.44334 3.73811 6.26006 3.76599 5.64673C3.79192 5.07946 3.88671 4.77158 3.96634 4.56649C4.07179 4.29497 4.19809 4.10103 4.40172 3.8974C4.60535 3.69376 4.79929 3.5677 5.07079 3.462C5.27588 3.382 5.58387 3.28746 6.15113 3.2614C6.68784 3.23716 6.89583 3.22988 7.98016 3.22867V3.23013ZM11.6077 4.19619C11.2222 4.19619 10.9095 4.50855 10.9095 4.89413C10.9095 5.27958 11.2222 5.59231 11.6077 5.59231C11.9931 5.59231 12.3058 5.27958 12.3058 4.89413C12.3058 4.50867 11.9931 4.19594 11.6077 4.19594V4.19619ZM8.50208 5.01194C6.85207 5.01194 5.5143 6.34976 5.5143 7.99982C5.5143 9.64988 6.85207 10.9871 8.50208 10.9871C10.1521 10.9871 11.4894 9.64988 11.4894 7.99982C11.4894 6.34976 10.152 5.01194 8.50196 5.01194H8.50208ZM8.50208 6.06043C9.57308 6.06043 10.4414 6.92867 10.4414 7.99982C10.4414 9.07085 9.57308 9.93922 8.50208 9.93922C7.43096 9.93922 6.56275 9.07085 6.56275 7.99982C6.56275 6.92867 7.43096 6.06043 8.50208 6.06043V6.06043Z" fill="url(#paint0_radial_2502_39655)"/>
<path d="M8.50208 2.18164C6.92201 2.18164 6.72371 2.18855 6.10313 2.21679C5.48375 2.24516 5.06098 2.34322 4.69105 2.4871C4.30839 2.6357 3.9838 2.83449 3.66041 3.158C3.33679 3.4814 3.138 3.806 2.98892 4.18855C2.84468 4.55861 2.7465 4.98152 2.71862 5.60067C2.69087 6.22128 2.68359 6.4197 2.68359 7.99982C2.68359 9.57994 2.69062 9.77764 2.71874 10.3982C2.74723 11.0176 2.84529 11.4404 2.98904 11.8104C3.13776 12.193 3.33654 12.5176 3.66005 12.841C3.98331 13.1647 4.30791 13.3639 4.69032 13.5125C5.06049 13.6564 5.48339 13.7545 6.10264 13.7829C6.72323 13.8111 6.9214 13.818 8.50136 13.818C10.0816 13.818 10.2792 13.8111 10.8998 13.7829C11.5192 13.7545 11.9425 13.6564 12.3126 13.5125C12.6952 13.3639 13.0193 13.1647 13.3425 12.841C13.6662 12.5176 13.865 12.193 14.014 11.8105C14.1571 11.4404 14.2552 11.0175 14.2843 10.3984C14.3122 9.77776 14.3195 9.57994 14.3195 7.99982C14.3195 6.4197 14.3122 6.2214 14.2843 5.60079C14.2552 4.9814 14.1571 4.55861 14.014 4.18867C13.865 3.806 13.6662 3.4814 13.3425 3.158C13.0189 2.83437 12.6953 2.63558 12.3123 2.4871C11.9414 2.34322 11.5184 2.24516 10.899 2.21679C10.2784 2.18855 10.0808 2.18164 8.50027 2.18164H8.50208ZM7.98016 3.23013C8.13507 3.22988 8.30791 3.23013 8.50208 3.23013C10.0555 3.23013 10.2396 3.2357 10.853 3.26358C11.4203 3.28952 11.7282 3.38431 11.9333 3.46394C12.2048 3.5694 12.3983 3.69546 12.6018 3.89909C12.8055 4.10273 12.9315 4.29667 13.0372 4.56819C13.1169 4.77303 13.2118 5.08091 13.2376 5.64819C13.2655 6.26152 13.2715 6.44576 13.2715 7.99849C13.2715 9.55122 13.2655 9.73546 13.2376 10.3488C13.2116 10.9161 13.1169 11.2239 13.0372 11.4288C12.9318 11.7003 12.8055 11.8936 12.6018 12.0972C12.3982 12.3008 12.2049 12.4269 11.9333 12.5323C11.7284 12.6123 11.4203 12.7069 10.853 12.7328C10.2397 12.7607 10.0555 12.7667 8.50208 12.7667C6.94856 12.7667 6.76444 12.7607 6.15113 12.7328C5.58387 12.7066 5.276 12.6118 5.07079 12.5322C4.79929 12.4267 4.60535 12.3007 4.40172 12.097C4.19809 11.8934 4.07204 11.6999 3.96634 11.4283C3.88671 11.2235 3.7918 10.9156 3.76599 10.3483C3.73811 9.73497 3.73253 9.55073 3.73253 7.99703C3.73253 6.44334 3.73811 6.26006 3.76599 5.64673C3.79192 5.07946 3.88671 4.77158 3.96634 4.56649C4.07179 4.29497 4.19809 4.10103 4.40172 3.8974C4.60535 3.69376 4.79929 3.5677 5.07079 3.462C5.27588 3.382 5.58387 3.28746 6.15113 3.2614C6.68784 3.23716 6.89583 3.22988 7.98016 3.22867V3.23013ZM11.6077 4.19619C11.2222 4.19619 10.9095 4.50855 10.9095 4.89413C10.9095 5.27958 11.2222 5.59231 11.6077 5.59231C11.9931 5.59231 12.3058 5.27958 12.3058 4.89413C12.3058 4.50867 11.9931 4.19594 11.6077 4.19594V4.19619ZM8.50208 5.01194C6.85207 5.01194 5.5143 6.34976 5.5143 7.99982C5.5143 9.64988 6.85207 10.9871 8.50208 10.9871C10.1521 10.9871 11.4894 9.64988 11.4894 7.99982C11.4894 6.34976 10.152 5.01194 8.50196 5.01194H8.50208ZM8.50208 6.06043C9.57308 6.06043 10.4414 6.92867 10.4414 7.99982C10.4414 9.07085 9.57308 9.93922 8.50208 9.93922C7.43096 9.93922 6.56275 9.07085 6.56275 7.99982C6.56275 6.92867 7.43096 6.06043 8.50208 6.06043V6.06043Z" fill="url(#paint1_radial_2502_39655)"/>
<defs>
<radialGradient id="paint0_radial_2502_39655" cx="0" cy="0" r="1" gradientUnits="userSpaceOnUse" gradientTransform="translate(5.77439 14.7142) rotate(-90) scale(11.5325 10.7257)">
<stop stop-color="#FFDD55"/>
<stop offset="0.1" stop-color="#FFDD55"/>
<stop offset="0.5" stop-color="#FF543E"/>
<stop offset="1" stop-color="#C837AB"/>
</radialGradient>
<radialGradient id="paint1_radial_2502_39655" cx="0" cy="0" r="1" gradientUnits="userSpaceOnUse" gradientTransform="translate(0.734521 3.0199) rotate(78.6811) scale(5.15506 21.2486)">
<stop stop-color="#3771C8"/>
<stop offset="0.128" stop-color="#3771C8"/>
<stop offset="1" stop-color="#6600FF" stop-opacity="0"/>
</radialGradient>
</defs>
</svg>
