<svg width="17" height="16" viewBox="0 0 17 16" fill="none" xmlns="http://www.w3.org/2000/svg">
<path d="M7.5 13.9333C4.66667 13.4333 2.5 10.9667 2.5 8C2.5 4.7 5.2 2 8.5 2C11.8 2 14.5 4.7 14.5 8C14.5 10.9667 12.3333 13.4333 9.5 13.9333L9.16667 13.6667H7.83333L7.5 13.9333Z" fill="url(#paint0_linear_2502_39650)"/>
<path d="M10.8333 9.66634L11.1 7.99967H9.5V6.83301C9.5 6.36634 9.66667 5.99967 10.4 5.99967H11.1667V4.46634C10.7333 4.39967 10.2667 4.33301 9.83333 4.33301C8.46667 4.33301 7.5 5.16634 7.5 6.66634V7.99967H6V9.66634H7.5V13.8997C7.83333 13.9663 8.16667 13.9997 8.5 13.9997C8.83333 13.9997 9.16667 13.9663 9.5 13.8997V9.66634H10.8333Z" fill="white"/>
<defs>
<linearGradient id="paint0_linear_2502_39650" x1="8.5" y1="13.5847" x2="8.5" y2="2" gradientUnits="userSpaceOnUse">
<stop stop-color="#0062E0"/>
<stop offset="1" stop-color="#19AFFF"/>
</linearGradient>
</defs>
</svg>
