<svg xmlns="http://www.w3.org/2000/svg" viewBox="0 0 9.76 8.05">
    <path d="M9.71,1a4.08,4.08,0,0,1-1,.28c.15,0,.39-.31.48-.43A1.88,1.88,0,0,0,9.53.23s0,0,0-.05h0A5.37,5.37,0,0,1,8.31.64H8.26s0,0,0,0L8.12.51A2,2,0,0,0,7.57.15,2,2,0,0,0,6.7,0a2.19,2.19,0,0,0-.83.23,2.18,2.18,0,0,0-.65.56,2,2,0,0,0-.4.79,2.16,2.16,0,0,0,0,.84c0,.05,0,.06,0,.05A6.21,6.21,0,0,1,.73.42S.66.37.62.42A2.06,2.06,0,0,0,1,2.84l.25.21a2.05,2.05,0,0,1-.77-.21s-.07,0-.08,0V3.1a2,2,0,0,0,.42,1,2.09,2.09,0,0,0,.85.65l.26.08a2.16,2.16,0,0,1-.76,0s-.07,0,0,.07A2.12,2.12,0,0,0,2.66,6.26l.23,0h0c-.16.29-.79.48-1.08.58A3.91,3.91,0,0,1,.14,7.1c-.09,0-.11,0-.13,0s0,0,0,.06l.35.2a5.38,5.38,0,0,0,1.11.45A5.9,5.9,0,0,0,7.22,6.47,6,6,0,0,0,8.81,2.08c0-.06.07-.1.11-.13a3.75,3.75,0,0,0,.78-.81A.25.25,0,0,0,9.76,1S9.76,1,9.71,1Z" fill="currentcolor" />
</svg>