<svg width="17" height="16" viewBox="0 0 17 16" fill="none" xmlns="http://www.w3.org/2000/svg">
<path fill-rule="evenodd" clip-rule="evenodd" d="M13.6808 5.3921C13.6853 5.50869 13.6868 5.62523 13.6868 5.74182C13.6868 9.27662 11.2002 13.3573 6.65317 13.3573C5.25639 13.3573 3.95759 12.9122 2.86328 12.1543C3.05672 12.1755 3.25317 12.1915 3.45264 12.1915C4.61076 12.1915 5.67743 11.7621 6.52354 11.0414C5.44179 11.0255 4.52836 10.2464 4.21334 9.18653C4.36457 9.21833 4.52031 9.23427 4.67959 9.23427C4.90418 9.23427 5.12223 9.20251 5.33125 9.13892C4.19926 8.89514 3.34663 7.81405 3.34663 6.51566C3.34663 6.49976 3.34663 6.49443 3.34663 6.48383C3.68025 6.67992 4.06209 6.80175 4.46756 6.81764C3.80334 6.33539 3.36672 5.51398 3.36672 4.58655C3.36672 4.099 3.4883 3.63791 3.70234 3.24045C4.92126 4.86211 6.74361 5.92734 8.79808 6.03863C8.75587 5.84254 8.73426 5.63591 8.73426 5.42923C8.73426 3.95065 9.84112 2.75293 11.2067 2.75293C11.9177 2.75293 12.5598 3.07625 13.0105 3.5956C13.5747 3.47901 14.1033 3.25645 14.5816 2.94908C14.3962 3.57442 14.0048 4.09897 13.4933 4.42754C13.9938 4.36395 14.4711 4.22097 14.9137 4.00899C14.5816 4.54424 14.1636 5.01583 13.6808 5.3921Z" fill="#1EA1F2"/>
</svg>
