<svg xmlns="http://www.w3.org/2000/svg" viewBox="0 0 9.74 9.76">
<path d="M8.07,9.5A2.46,2.46,0,0,0,9.5,8.07a3.72,3.72,0,0,0,.23-1.18c0-.12,0-.22,0-.33V3.1c0-.07,0-.15,0-.23A3.53,3.53,0,0,0,9.5,1.68,2.33,2.33,0,0,0,8.94.82,2.41,2.41,0,0,0,8.08.26,3.58,3.58,0,0,0,6.89,0c-.52,0-.69,0-2,0s-1.49,0-2,0A3.53,3.53,0,0,0,1.68.26,2.33,2.33,0,0,0,.82.82a2.33,2.33,0,0,0-.56.86A3.53,3.53,0,0,0,0,2.87c0,.52,0,.68,0,2s0,1.49,0,2A3.46,3.46,0,0,0,.26,8.07a2.37,2.37,0,0,0,.56.87,2.33,2.33,0,0,0,.86.56,3.79,3.79,0,0,0,1.19.23c.52,0,.68,0,2,0s1.49,0,2,0A3.72,3.72,0,0,0,8.07,9.5ZM4.88,8.88c-1.3,0-1.46,0-2,0A2.62,2.62,0,0,1,2,8.68a1.57,1.57,0,0,1-.92-.92,2.56,2.56,0,0,1-.17-.91c0-.51,0-.67,0-2s0-1.46,0-2A2.54,2.54,0,0,1,1.08,2a1.41,1.41,0,0,1,.37-.56A1.41,1.41,0,0,1,2,1.08a3.12,3.12,0,0,1,.9-.17c.52,0,.67,0,2,0s1.46,0,2,0a3.13,3.13,0,0,1,.91.17,1.48,1.48,0,0,1,.56.37A1.5,1.5,0,0,1,8.68,2a2.54,2.54,0,0,1,.17.9c0,.52,0,.67,0,2s0,1.46,0,2a2.56,2.56,0,0,1-.17.91,1.6,1.6,0,0,1-.92.92,2.62,2.62,0,0,1-.91.17c-.51,0-.67,0-2,0Z" fill="currentcolor" />
<path d="M4.88,2.37A2.51,2.51,0,1,0,7.39,4.88,2.51,2.51,0,0,0,4.88,2.37Zm0,4.13A1.63,1.63,0,1,1,6.5,4.88,1.62,1.62,0,0,1,4.88,6.5Z" fill="currentcolor" />
<path d="M8.07,2.27a.59.59,0,1,0-.59.59A.58.58,0,0,0,8.07,2.27Z" fill="currentcolor" />
</svg>