<svg xmlns="http://www.w3.org/2000/svg" viewBox="0 0 33.3 34.54">
    <path d="M27,.35c0,.75.93,1.37,2.09,1.38s2.11-.59,2.12-1.34a.66.66,0,0,0,0-.14l1.65,0,0,3.44h0l0,.69v.14h0l0,28.65-3.76-1.31-3.85,2.66L20.48,31l-2.66,2.53L12.5,31l-6,2.53L2.4,30.29H0V3.48H0L0,0h1.4s0,.09,0,.14c0,.74.94,1.36,2.1,1.37S5.63.93,5.64.18a.53.53,0,0,0,0-.13h.92c0,.05,0,.09,0,.14,0,.75.93,1.36,2.1,1.37S10.75,1,10.76.22c0,0,0-.09,0-.13h.92a.66.66,0,0,0,0,.14c0,.75.93,1.36,2.1,1.37S15.87,1,15.88.26c0,0,0-.09,0-.13h.92a.53.53,0,0,0,0,.13c0,.75.93,1.36,2.1,1.37S21,1.05,21,.3a.57.57,0,0,0,0-.13h.93a.57.57,0,0,0,0,.13c0,.75.93,1.36,2.09,1.37s2.12-.59,2.12-1.33a.66.66,0,0,0,0-.14H27A.57.57,0,0,0,27,.35Z" fill="currentColor" fill-opacity="0.3" />
    <path d="M4.24,20l24,.25a.69.69,0,0,0,.69-.67.68.68,0,0,0-.67-.68L17.35,18.8a3,3,0,0,0,.88-.61L28.79,7.63,25.86,4.69,15.3,15.26a3.12,3.12,0,0,0-.93,2.23v1.28L4.25,18.66a.68.68,0,0,0,0,1.35Z" fill="currentColor" />
    <path d="M4.62,15l10.43,0a.67.67,0,0,0,.68-.67.69.69,0,0,0-.67-.68L4.62,13.62a.67.67,0,0,0-.67.67A.66.66,0,0,0,4.62,15Z" fill="currentColor" />
    <path d="M28.33,22.32l-24-.25a.67.67,0,0,0-.68.67.69.69,0,0,0,.67.68l24,.24a.67.67,0,1,0,0-1.34Z" fill="currentColor" />
    <path d="M33.14,1.47A2.09,2.09,0,0,0,32,.35a2.06,2.06,0,0,0-1.59,0,2.18,2.18,0,0,0-.68.45L27,3.58l2.94,2.93,2.77-2.77a2,2,0,0,0,.45-.68,2,2,0,0,0,.16-.79A2,2,0,0,0,33.14,1.47Z" fill="currentColor" />
</svg>