<svg xmlns="http://www.w3.org/2000/svg" viewBox="0 0 32.25 38.61">
    <polygon points="31.9 38.61 32.25 25.66 29.7 25.17 26.03 27.18 22.93 25.37 20 25.82 16.88 24.33 11.22 27.17 5.83 25.85 5.24 38.61 31.9 38.61" fill="currentColor" fill-opacity="0.5" />
    <path d="M28.33,33.19H25.47a.56.56,0,0,0,0,1.11h2.86a.55.55,0,0,0,.55-.55A.55.55,0,0,0,28.33,33.19Z" fill="currentColor" />
    <path d="M22.81,33.18,8.87,33.07a.56.56,0,1,0,0,1.11l13.94.11a.56.56,0,0,0,.56-.55A.55.55,0,0,0,22.81,33.18Z" fill="currentColor" />
    <path d="M22.6,36.37,8.66,36.26a.56.56,0,1,0,0,1.11l13.94.1a.54.54,0,0,0,.56-.54A.56.56,0,0,0,22.6,36.37Z" fill="currentColor" />
    <path d="M28.11,36.38H25.26a.56.56,0,0,0,0,1.11h2.86a.55.55,0,0,0,.55-.55A.54.54,0,0,0,28.11,36.38Z" fill="currentColor" />
    <path d="M27.25,3.46h0l0-.12-.1-.56h0L26.56,0,25.23.27l0,.1c.12.61-.55,1.25-1.49,1.44s-1.8-.14-1.92-.75c0,0,0-.07,0-.11l-.74.15,0,.11c.12.6-.55,1.25-1.49,1.44s-1.8-.15-1.92-.76c0,0,0-.07,0-.11L17,1.93,17,2c.12.6-.55,1.25-1.49,1.44s-1.8-.15-1.92-.76c0,0,0-.07,0-.11l-.74.15,0,.11c.12.61-.55,1.25-1.49,1.44s-1.8-.15-1.92-.75c0,0,0-.08,0-.11l-.74.15,0,.1c.12.61-.55,1.25-1.49,1.44S5.41,5,5.29,4.39c0,0,0-.07,0-.11l-.74.15,0,.11C4.68,5.14,4,5.78,3.07,6s-1.8-.14-1.92-.75a.43.43,0,0,1,0-.11L0,5.34.57,8.16h0l.12.54v.1h0L4,24.65,6,23.93,10.41,25l3.86-3.49,4.37.63,1.83-.94,4.14.87L28,19.54l2.06.2ZM4.3,10.37a.55.55,0,0,1,.43-.66L13.19,8a.56.56,0,0,1,.22,1.1L5,10.81A.56.56,0,0,1,4.3,10.37Zm.54,4.14a.56.56,0,0,1,.44-.65L24.72,10a.56.56,0,0,1,.22,1.1L5.5,15A.57.57,0,0,1,4.84,14.51Zm20.77-.69L6.18,17.69A.56.56,0,1,1,6,16.59l19.43-3.86a.56.56,0,1,1,.22,1.09Z" fill="currentColor" />
</svg>