<svg xmlns="http://www.w3.org/2000/svg" viewBox="0 0 36 35.96">
    <path d="M13.72,17.72,1.89,10a18,18,0,0,0,14,25.87l.74-12.44a6.44,6.44,0,0,0-2.9-5.71Z" fill="currentColor" fill-opacity="0.7" />
    <path d="M20.25,19.4a6.5,6.5,0,0,0-1,3.18L18.87,36A18,18,0,0,0,36,18a17.77,17.77,0,0,0-1.49-7.15L22.66,17.13A6.49,6.49,0,0,0,20.25,19.4Z" fill="currentColor" />
    <path d="M18,0A18,18,0,0,0,3.31,7.62l12,7a6.38,6.38,0,0,0,6.4,0l11.3-6.51A18,18,0,0,0,18,0Z" fill="currentColor" fill-opacity="0.4" />
</svg>