<svg width="18" height="20" viewBox="0 0 18 20" fill="none" xmlns="http://www.w3.org/2000/svg">
<path fill-rule="evenodd" clip-rule="evenodd" d="M8.99718 12.0224C5.12426 12.0224 3.50491 11.6113 1.81687 14.3109C0.868696 15.8274 0.632269 17.6408 2.3358 18.1854C4.24598 18.796 6.92391 19 8.99718 19C11.0739 19 13.7693 18.8 15.6842 18.1857C17.378 17.6423 17.1007 15.8558 16.1765 14.3358C14.52 11.6112 12.8911 12.0224 8.99718 12.0224Z" stroke="#9A9CAB" stroke-width="1.5" stroke-linecap="round" stroke-linejoin="round"/>
<path fill-rule="evenodd" clip-rule="evenodd" d="M9.00057 9C11.2097 9 13.0001 7.20868 13.0001 4.99959C13.0001 2.79049 11.2097 1 9.00057 1C6.79147 1 5.00016 2.79049 5.00016 4.99959C4.9927 7.20122 6.77158 8.99254 8.97238 9H9.00057Z" stroke="#9A9CAB" stroke-width="1.5" stroke-linecap="round" stroke-linejoin="round"/>
</svg>
