<svg xmlns="http://www.w3.org/2000/svg" viewBox="0 0 21.15 13.38">
    <path d="M10.57,13.25a.76.76,0,0,1-.75-.75V4.67H5.56a.75.75,0,0,1,0-1.5h10a.75.75,0,0,1,0,1.5H11.32V12.5A.75.75,0,0,1,10.57,13.25Z" fill="currentcolor" />
    <path d="M7.51,7.67a.74.74,0,0,0-.71-.54H4.17A1.89,1.89,0,0,1,2.31,5.55L1.49.63A.75.75,0,0,0,0,.87L.83,5.79A3.41,3.41,0,0,0,2,7.82l-.91,4.67a.76.76,0,0,0,.59.88h.15a.75.75,0,0,0,.73-.61l.83-4.25a3.59,3.59,0,0,0,.8.11h1.9v4a.75.75,0,1,0,1.5,0V8A.73.73,0,0,0,7.51,7.67Z" fill="currentcolor" />
    <path d="M21.13.87A.75.75,0,0,0,20.52,0a.76.76,0,0,0-.87.62l-.82,4.92A1.88,1.88,0,0,1,17,7.13H14.35a.8.8,0,0,0-.78.78v4.72a.75.75,0,1,0,1.5,0v-4H17a3.6,3.6,0,0,0,.81-.11l.82,4.25a.76.76,0,0,0,.74.61h.14a.75.75,0,0,0,.59-.88l-.9-4.67a3.34,3.34,0,0,0,1.14-2Z" fill="currentcolor" />
</svg>