<svg width="11" height="14" viewBox="0 0 11 14" fill="none" xmlns="http://www.w3.org/2000/svg">
    <path d="M5.5 6.66667C4.84073 6.66667 4.19626 6.47117 3.6481 6.1049C3.09994 5.73863 2.67269 5.21803 2.4204 4.60895C2.16811 3.99986 2.1021 3.32964 2.23072 2.68303C2.35933 2.03643 2.6768 1.44249 3.14298 0.976313C3.60915 0.510138 4.2031 0.192668 4.8497 0.0640505C5.4963 -0.0645668 6.16653 0.00144428 6.77561 0.253736C7.3847 0.506028 7.90529 0.933271 8.27156 1.48143C8.63784 2.0296 8.83333 2.67406 8.83333 3.33333C8.83333 4.21739 8.48214 5.06524 7.85702 5.69036C7.2319 6.31548 6.38406 6.66667 5.5 6.66667ZM9.66667 13.3333H1.33333C1.11232 13.3333 0.900358 13.2455 0.744078 13.0893C0.587797 12.933 0.5 12.721 0.5 12.5C0.5 11.1739 1.02678 9.90215 1.96447 8.96447C2.90215 8.02678 4.17392 7.5 5.5 7.5C6.82608 7.5 8.09785 8.02678 9.03553 8.96447C9.97322 9.90215 10.5 11.1739 10.5 12.5C10.5 12.721 10.4122 12.933 10.2559 13.0893C10.0996 13.2455 9.88768 13.3333 9.66667 13.3333Z" fill="currentcolor" />
</svg>
